<svg viewBox="0 0 32 32" xml:space="preserve" xmlns="http://www.w3.org/2000/svg" fill-rule="evenodd" clip-rule="evenodd" stroke-linejoin="round" stroke-miterlimit="2"><path d="M26.5 14.778a2.5 2.5 0 0 0-2.5-2.5H8a2.5 2.5 0 0 0-2.5 2.5v10a2.5 2.5 0 0 0 2.5 2.5h16a2.5 2.5 0 0 0 2.5-2.5v-10Zm-1 0a1.5 1.5 0 0 0-1.5-1.5H8a1.503 1.503 0 0 0-1.5 1.5v10a1.503 1.503 0 0 0 1.5 1.5h16a1.503 1.503 0 0 0 1.5-1.5v-10Z" fill="#000000" class="fill-000000"></path><path d="M16 17.278a2.5 2.5 0 0 0 0 5 2.5 2.5 0 0 0 0-5Zm0 1a1.5 1.5 0 1 1-.001 3.001A1.5 1.5 0 0 1 16 18.278ZM22.226 8.786A7.499 7.499 0 0 0 15.45 4.5V5v-.5a7.501 7.501 0 0 0-7.5 7.5v.778h1V12a6.499 6.499 0 0 1 6.5-6.5V5v.5a6.5 6.5 0 0 1 5.872 3.714.5.5 0 0 0 .904-.428Z" fill="#000000" class="fill-000000"></path></svg>