<svg width="136" height="136" viewBox="0 0 136 136" fill="none" xmlns="http://www.w3.org/2000/svg">
<path d="M89.0955 33.9411L101.823 46.6691C102.947 47.7952 103.578 49.321 103.578 50.9117C103.578 52.5024 102.947 54.0282 101.823 55.1543L89.0955 67.8823L101.823 80.6102C102.947 81.7363 103.578 83.2621 103.578 84.8528C103.578 86.4436 102.947 87.9694 101.823 89.0955L89.0955 101.823C87.9693 102.947 86.4436 103.578 84.8528 103.578C83.2621 103.578 81.7363 102.947 80.6102 101.823L67.8822 89.0955L55.1543 101.823C54.0282 102.947 52.5024 103.578 50.9117 103.578C49.3209 103.578 47.7952 102.947 46.669 101.823L33.9411 89.0955C32.8176 87.9694 32.1866 86.4436 32.1866 84.8528C32.1866 83.2621 32.8176 81.7363 33.9411 80.6102L46.669 67.8823L33.9411 55.1543C32.8176 54.0282 32.1866 52.5024 32.1866 50.9117C32.1866 49.321 32.8176 47.7952 33.9411 46.6691L46.669 33.9411C47.7952 32.8176 49.3209 32.1866 50.9117 32.1866C52.5024 32.1866 54.0282 32.8176 55.1543 33.9411L67.8822 46.6691L80.6102 33.9411C81.7363 32.8176 83.2621 32.1866 84.8528 32.1866C86.4436 32.1866 87.9693 32.8176 89.0955 33.9411Z" fill="#1D3557"/>
</svg>
