<svg xmlns="http://www.w3.org/2000/svg" width="192" height="192" fill="#000000" viewBox="0 0 256 256"><rect width="256" height="256" fill="none"></rect><path d="M180,40h28a8,8,0,0,1,8,8V75.99963" fill="none" stroke="#000000" stroke-linecap="round" stroke-linejoin="round" stroke-width="8"></path><path d="M180,216h28a8,8,0,0,0,8-8V179.99963" fill="none" stroke="#000000" stroke-linecap="round" stroke-linejoin="round" stroke-width="8"></path><path d="M76,216H48a8,8,0,0,1-8-8V179.99963" fill="none" stroke="#000000" stroke-linecap="round" stroke-linejoin="round" stroke-width="8"></path><path d="M76,40H48a8,8,0,0,0-8,8V75.99963" fill="none" stroke="#000000" stroke-linecap="round" stroke-linejoin="round" stroke-width="8"></path><circle cx="128" cy="112" r="32" fill="none" stroke="#000000" stroke-linecap="round" stroke-linejoin="round" stroke-width="8"></circle><path d="M74.92057,175.99964a60.02261,60.02261,0,0,1,106.15892.00009" fill="none" stroke="#000000" stroke-linecap="round" stroke-linejoin="round" stroke-width="8"></path></svg>